<?xml version="1.0" encoding="UTF-8" standalone="no"?>
<svg
   data-name="Layer 1"
   width="810"
   height="677.07902"
   viewBox="0 0 810 677.07902"
   version="1.1"
   id="svg156"
   sodipodi:docname="cookie.svg"
   inkscape:version="1.1.2 (b8e25be833, 2022-02-05)"
   xmlns:inkscape="http://www.inkscape.org/namespaces/inkscape"
   xmlns:sodipodi="http://sodipodi.sourceforge.net/DTD/sodipodi-0.dtd"
   xmlns="http://www.w3.org/2000/svg"
   xmlns:svg="http://www.w3.org/2000/svg">
  <defs
     id="defs160" />
  <sodipodi:namedview
     id="namedview158"
     pagecolor="#505050"
     bordercolor="#eeeeee"
     borderopacity="1"
     inkscape:pageshadow="0"
     inkscape:pageopacity="0"
     inkscape:pagecheckerboard="0"
     showgrid="false"
     inkscape:zoom="1.1933614"
     inkscape:cx="405.15807"
     inkscape:cy="472.1956"
     inkscape:window-width="1920"
     inkscape:window-height="1001"
     inkscape:window-x="-9"
     inkscape:window-y="-9"
     inkscape:window-maximized="1"
     inkscape:current-layer="svg156" />
  <title
     id="title2">cookie love</title>
  <circle
     cx="550"
     cy="175.07902"
     r="11"
     fill="#3f3d56"
     id="circle8" />
  <circle
     cx="550"
     cy="262.07902"
     r="11"
     fill="#3f3d56"
     id="circle10" />
  <circle
     cx="660"
     cy="284.07902"
     r="11"
     fill="#3f3d56"
     id="circle12" />
  <ellipse
     cx="405"
     cy="657.07902"
     rx="405"
     ry="20"
     fill="#f2f2f2"
     id="ellipse14"
     style="fill:#373748;fill-opacity:1" />
  <path
     d="M836.916,443.69541c-4.59357-7.57657-20.63912-7.381-20.63912-7.381-14.609,21.70578-49.7257-1.351-49.7257-1.351-26.08227,11.66883-41.9963-25.51693-41.9963-25.51693-35.09529-5.24782-29.67333-42.10652-29.67333-42.10652-17.46047-3.50561-12.56124-35.074-12.56124-35.074s9.68846-7.94625,4.92075-13.7593c-3.03112-3.69565-3.21921-14.302-2.95455-21.54257A240.94768,240.94768,0,0,0,614,286.53951c-133.10061,0-241,107.89939-241,241s107.89939,241,241,241,241-107.89939,241-241A240.44549,240.44549,0,0,0,839.68776,442.865C838.45065,444.26108,837.49162,444.64482,836.916,443.69541Z"
     transform="translate(-195 -111.46049)"
     fill="#3f3d56"
     id="path16" />
  <path
     d="M836.916,443.69541c-4.59357-7.57657-20.63912-7.381-20.63912-7.381-14.609,21.70578-49.7257-1.351-49.7257-1.351-26.08227,11.66883-41.9963-25.51693-41.9963-25.51693-35.09529-5.24782-29.67333-42.10652-29.67333-42.10652-17.46047-3.50561-12.56124-35.074-12.56124-35.074s9.68846-7.94625,4.92075-13.7593c-3.03112-3.69565-3.21921-14.302-2.95455-21.54257A240.94768,240.94768,0,0,0,614,286.53951c-133.10061,0-241,107.89939-241,241s107.89939,241,241,241,241-107.89939,241-241A240.44549,240.44549,0,0,0,839.68776,442.865C838.45065,444.26108,837.49162,444.64482,836.916,443.69541Z"
     transform="translate(-195 -111.46049)"
     opacity="0.1"
     id="path18" />
  <path
     d="M822.6334,442.74372c-4.36871-7.20568-19.62881-7.01971-19.62881-7.01971-13.89387,20.64326-47.29158-1.28486-47.29158-1.28486-24.80552,11.09762-39.94053-24.26786-39.94053-24.26786-33.37734-4.99093-28.2208-40.04535-28.2208-40.04535-16.60576-3.334-11.94635-33.35708-11.94635-33.35708s9.2142-7.55727,4.67987-13.08577c-2.88274-3.51474-3.06162-13.60194-2.80992-20.488a229.1527,229.1527,0,0,0-66.84591-9.91429c-126.5852,0-229.2028,102.6176-229.2028,229.2028s102.6176,229.2028,229.2028,229.2028,229.2028-102.61761,229.2028-229.2028a228.6756,228.6756,0,0,0-14.56269-80.52963C824.09293,443.2817,823.18084,443.64666,822.6334,442.74372Z"
     transform="translate(-195 -111.46049)"
     fill="#3f3d56"
     id="path20" />
  <path
     d="M585.1073,475.304s-18.03892-11.47931-35.25788,0a24.90439,24.90439,0,0,0-10.411,15.48846,34.40329,34.40329,0,0,0,6.75445,29.21923s46.18249,54.37968,50.50054,53.41275q.12648-.02832.25463-.05909c3.11123-.74714,34.432-53.14831,34.432-53.14831a46.07506,46.07506,0,0,0,5.85246-28.65916c-1.27042-9.784-5.96877-20.0974-19.32713-23.63344C617.90533,467.92439,602.32626,461.36479,585.1073,475.304Z"
     transform="translate(-195 -111.46049)"
     opacity="0.1"
     id="path28" />
  <polyline
     points="277.434 449.785 282.49 458.212 292.601 475.065 295.972 486.862 289.231 496.974 297.657 517.198 301.028 528.995 294.287 535.736 307.769 545.848"
     opacity="0.1"
     id="polyline30" />
  <polyline
     points="525.175 375.631 525.175 389.114 516.748 411.023 511.692 422.82 520.119 437.988 523.49 448.1 536.972 453.156 542.028 461.583 542.028 481.806"
     opacity="0.1"
     id="polyline32" />
  <path
     d="M806.12587,500.57448l-13.48251,8.42657s-6.74126,3.37063-6.74126,5.05594v13.48252"
     transform="translate(-195 -111.46049)"
     opacity="0.1"
     id="path34" />
  <polyline
     points="550.455 341.925 553.825 358.778 550.455 370.576"
     opacity="0.1"
     id="polyline36" />
  <polyline
     points="563.937 493.604 553.825 508.771 542.028 518.883 542.028 525.624 548.769 534.051 548.769 544.163 543.713 554.275"
     opacity="0.1"
     id="polyline38" />
  <polyline
     points="467.874 207.1 451.021 207.1 437.538 218.897 415.629 230.694 405.517 239.121 405.517 242.492 383.608 254.289 376.867 266.086"
     opacity="0.1"
     id="polyline40" />
  <path
     d="M480.86014,347.21084l-15.16783,30.33567-5.05595,11.7972-11.7972,15.16783s-8.42657,15.16783-10.11189,16.85315-13.48251,5.05594-13.48251,5.05594l16.85314,16.85315"
     transform="translate(-195 -111.46049)"
     opacity="0.1"
     id="path42" />
  <polyline
     points="218.448 352.037 215.077 373.946 218.448 387.429 218.448 411.023 208.336 454.841 218.448 466.638 230.245 481.806"
     opacity="0.1"
     id="polyline44" />
  <polyline
     points="243.727 362.149 253.839 367.205 260.58 389.114 274.063 385.743 280.804 397.541"
     opacity="0.1"
     id="polyline46" />
  <polyline
     points="429.112 581.24 456.077 577.869 467.874 566.072 484.727 566.072"
     opacity="0.1"
     id="polyline48" />
  <polyline
     points="265.636 545.848 275.748 557.645 292.601 562.701 304.399 566.072 307.769 584.61"
     opacity="0.1"
     id="polyline50" />
  <polyline
     points="464.503 488.548 476.301 480.121 481.357 466.638 491.469 464.953 496.524 448.1"
     opacity="0.1"
     id="polyline52" />
  <polyline
     points="139.49 210.296 139.972 211.1 140.937 212.708 141.259 213.834 140.615 214.799 141.42 216.729 141.741 217.855 141.098 218.499 142.385 219.464"
     opacity="0.1"
     id="polyline124" />
  <polyline
     points="163.133 203.219 163.133 204.506 162.329 206.597 161.846 207.722 162.65 209.17 162.972 210.135 164.259 210.617 164.741 211.422 164.741 213.352"
     opacity="0.1"
     id="polyline126" />
  <path
     d="M366.33566,315.96609l-1.28671.80419s-.64336.32168-.64336.48252v1.28671"
     transform="translate(-195 -111.46049)"
     opacity="0.1"
     id="path128" />
  <polyline
     points="165.545 200.002 165.867 201.61 165.545 202.736"
     opacity="0.1"
     id="polyline130" />
  <polyline
     points="166.832 214.478 165.867 215.925 164.741 216.89 164.741 217.534 165.385 218.338 165.385 219.303 164.902 220.268"
     opacity="0.1"
     id="polyline132" />
  <polyline
     points="157.664 187.135 156.056 187.135 154.769 188.261 152.678 189.387 151.713 190.191 151.713 190.513 149.622 191.638 148.979 192.764"
     opacity="0.1"
     id="polyline134" />
  <path
     d="M335.29371,301.32972l-1.44756,2.89511-.48251,1.12587-1.12588,1.44755s-.80419,1.44756-.965,1.6084a6.62107,6.62107,0,0,1-1.28672.48251l1.6084,1.60839"
     transform="translate(-195 -111.46049)"
     opacity="0.1"
     id="path136" />
  <polyline
     points="133.86 200.967 133.538 203.058 133.86 204.345 133.86 206.597 132.895 210.778 133.86 211.904 134.986 213.352"
     opacity="0.1"
     id="polyline138" />
  <polyline
     points="136.273 201.932 137.238 202.415 137.881 204.506 139.168 204.184 139.811 205.31"
     opacity="0.1"
     id="polyline140" />
  <polyline
     points="153.965 222.841 156.538 222.52 157.664 221.394 159.273 221.394"
     opacity="0.1"
     id="polyline142" />
  <polyline
     points="138.364 219.464 139.329 220.59 140.937 221.072 142.063 221.394 142.385 223.163"
     opacity="0.1"
     id="polyline144" />
  <polyline
     points="157.343 213.995 158.469 213.191 158.951 211.904 159.916 211.743 160.399 210.135"
     opacity="0.1"
     id="polyline146" />
</svg>
