<?xml version="1.0" encoding="UTF-8" standalone="no"?>
<svg
   data-name="Layer 1"
   width="924"
   height="458.12749"
   viewBox="0 0 924 458.12749"
   version="1.1"
   id="svg80"
   sodipodi:docname="simpleblog.svg"
   inkscape:version="1.1.2 (b8e25be833, 2022-02-05)"
   xmlns:inkscape="http://www.inkscape.org/namespaces/inkscape"
   xmlns:sodipodi="http://sodipodi.sourceforge.net/DTD/sodipodi-0.dtd"
   xmlns="http://www.w3.org/2000/svg"
   xmlns:svg="http://www.w3.org/2000/svg">
  <defs
     id="defs84" />
  <sodipodi:namedview
     id="namedview82"
     pagecolor="#505050"
     bordercolor="#eeeeee"
     borderopacity="1"
     inkscape:pageshadow="0"
     inkscape:pageopacity="0"
     inkscape:pagecheckerboard="0"
     showgrid="false"
     inkscape:zoom="1.3549784"
     inkscape:cx="461.63098"
     inkscape:cy="229.15494"
     inkscape:window-width="1920"
     inkscape:window-height="1001"
     inkscape:window-x="-9"
     inkscape:window-y="-9"
     inkscape:window-maximized="1"
     inkscape:current-layer="svg80" />
  <path
     d="m 378.42272,294.02413 -46.77977,46.17 -105.72023,104.32 -2.13965,2.11 -11.91992,11.76 -24.9902,-24.69 -2.20019,-2.17 -45.69,-45.13 h -0.01 l -14.64013,-14.47 -8.6499,-8.55 -25.760254,-25.44 -3.4795,-3.44 -41.06006,-40.56 a 117.65792,117.65792 0 0 1 -20.52,-27.63 c -0.5,-0.91 -0.97022,-1.83 -1.43018,-2.75 A 117.50682,117.50682 0 0 1 148.14295,95.024133 h 0.0102 c 0.37989,0.06 0.75,0.12 1.12989,0.2 a 113.60526,113.60526 0 0 1 11.91015,2.77 117.09292,117.09292 0 0 1 29.11961,12.929997 q 1.4253,0.885 2.82031,1.8 a 118.17183,118.17183 0 0 1 18.46973,15.09 l 0.3501,-0.35 0.3501,0.35 a 118.54248,118.54248 0 0 1 10.83007,-9.58 c 0.82959,-0.65 1.66993,-1.29 2.50977,-1.91 a 117.44922,117.44922 0 0 1 90.51025,-21.059997 111.92113,111.92113 0 0 1 11.91993,2.78 q 1.96507,0.55509 3.8999,1.2 c 1.04,0.34 2.08008,0.69 3.10986,1.069997 a 116.42525,116.42525 0 0 1 24.39014,12.1 q 2.50488,1.63494 4.93994,3.42 a 117.54672,117.54672 0 0 1 14.00977,178.19 z"
     fill="#6c63ff"
     id="path24"
     style="fill:#373748;fill-opacity:1" />
  <path
     d="m 331.64295,340.19413 -105.72023,104.32 -2.13965,2.11 -11.91992,11.76 -24.9902,-24.69 -2.20019,-2.17 -45.69,-45.13 c 7.34034,-1.71 18.62012,0.64 22.75,2.68 9.79,4.83 17.84034,12.76 27.78028,17.28 a 46.138,46.138 0 0 0 28.33009,3.13 c 17.81982,-3.74 31.60986,-17.52 43.77,-31.08 12.15966,-13.57 24.58984,-28.13 41.67968,-34.42 9.01028,-3.32 18.68996,-4.07 28.35014,-3.79 z"
     opacity="0.15"
     id="path26" />
  <path
     d="M 416.621,126.05404 A 118.15747,118.15747 0 0 0 364.09122,95.504037 c -1.31983,-0.37 -2.62988,-0.7 -3.96,-1.01 a 116.83094,116.83094 0 0 0 -17.39006,-2.79 c -1.02,-0.1 -2.04,-0.17 -3.06982,-0.22 a 115.15486,115.15486 0 0 0 -15.43018,0.06 118.39675,118.39675 0 0 0 -74.83984,33.450003 l -0.36035,-0.36 -0.35987,0.36 A 118.61442,118.61442 0 0 0 201.9814,96.914037 c -0.99024,-0.32 -1.99024,-0.63 -2.99024,-0.92 a 119.67335,119.67335 0 0 0 -41.62012,-4.45 c -0.38964,0.02 -0.77978,0.05 -1.15966,0.09 A 118.30611,118.30611 0 0 0 86.811466,121.03404 c -1.82031,1.6 -3.61035,3.28 -5.35009,5.02 a 119.14261,119.14261 0 0 0 -26.64022,127.55 c 0.3501,0.94 0.73,1.87006 1.12988,2.8 a 118.153,118.153 0 0 0 25.51026,37.95 l 38.919924,38.42 3.06006,3.03 84.21972,83.13 2.16992,2.15 22.12012,21.84 17.08985,16.87 167.58011,-165.45 a 119.129,119.129 0 0 0 0,-168.29 z m -2.10984,166.16 -165.47023,163.36 -14.94971,-14.76 -21.6499,-21.37 -2.16993,-2.14 -82.58007,-81.53 -3.01026,-2.97 -41.100104,-40.58 a 115.19343,115.19343 0 0 1 -24.7598,-36.72 c -0.3999,-0.93 -0.78027,-1.86 -1.12988,-2.79 a 116.13377,116.13377 0 0 1 25.88968,-124.54 q 2.79054,-2.79 5.71,-5.34 h 0.0102 A 115.38082,115.38082 0 0 1 155.78116,94.674037 q 4.905,-0.42 9.81982,-0.42 c 1.23,0 2.4502,0.02 3.68018,0.06 a 116.0993,116.0993 0 0 1 29.6499,4.8 c 0.99024,0.29 1.98,0.6 2.96,0.930003 a 114.15644,114.15644 0 0 1 29.33008,14.49 115.61419,115.61419 0 0 1 16.41016,13.64 l 1.06006,1.06 0.34961,-0.35 0.35009,0.35 1.06006,-1.06 a 115.674,115.674 0 0 1 85.71,-33.860003 c 1.27,0.04 2.54,0.1 3.81006,0.19 1.02,0.06 2.04,0.13 3.05029,0.23 a 115.12349,115.12349 0 0 1 19.08985,3.35 c 1.33984,0.34 2.66992,0.71 3.98974,1.12 a 115.9591,115.9591 0 0 1 48.4101,193.010003 z"
     fill="#3f3d56"
     id="path28"
     style="fill:#8787de" />
  <path
     d="m 174.03258,102.53413 c -6.41992,5.07 -13.31006,9.75 -17.48,16.68 -3.06982,5.12 -4.3999,11.07 -5.39013,16.95 -1.91993,11.44 -2.73975,23.16 -6.5,34.12994 -3.75,10.97 -11.06983,21.45 -21.91993,25.54 -6.73,2.53 -14.1499,2.39 -21.31982,1.9 -17.68994,-1.2 -35.5,-4.37 -51.41992,-12.16 -8.8999,-4.36 -17.53028,-10.24 -27.41992,-10.89 a 25.39538,25.39538 0 0 0 -6.02,0.33 117.494,117.494 0 0 1 131.56984,-79.989937 h 0.0103 c 0.37989,0.06 0.75,0.12 1.12989,0.2 a 113.60526,113.60526 0 0 1 11.91015,2.77 117.48205,117.48205 0 0 1 12.84959,4.539997 z"
     opacity="0.15"
     id="path30" />
  <path
     d="M1061,679.06375H139a1,1,0,0,1,0-2h922a1,1,0,0,1,0,2Z"
     transform="translate(-138 -220.93625)"
     fill="#ccc"
     id="path78"
     style="fill:#53536c" />
</svg>
